<?xml version="1.0" encoding="UTF-8"?>
<svg version="1.1" xmlns="http://www.w3.org/2000/svg" width="48" height="48">
<path d="M0 0 C0.99 0 1.98 0 3 0 C3.08071788 2.79224073 3.14035408 5.58216566 3.1875 8.375 C3.22520508 9.56609375 3.22520508 9.56609375 3.26367188 10.78125 C3.29004405 12.85586148 3.15486462 14.93100865 3 17 C0 19 0 19 -3.625 18.6875 C-7 18 -7 18 -8 17 C-8.37086093 11.1589404 -8.37086093 11.1589404 -8 9 C-4.77208445 6.8480563 -3.71599191 6.79913557 0 7 C0 4.69 0 2.38 0 0 Z M-3 11 C-3.99 11.495 -3.99 11.495 -5 12 C-5 12.66 -5 13.32 -5 14 C-4.01 14.33 -3.02 14.66 -2 15 C-1.34 14.67 -0.68 14.34 0 14 C0 13.34 0 12.68 0 12 C-0.99 11.67 -1.98 11.34 -3 11 Z " fill="#34434C" transform="translate(33,12)"/>
<path d="M0 0 C3.375 0.6875 3.375 0.6875 4.375 1.6875 C4.74586093 7.5285596 4.74586093 7.5285596 4.375 9.6875 C1.375 11.6875 1.375 11.6875 -2.25 11.375 C-5.625 10.6875 -5.625 10.6875 -6.625 9.6875 C-6.99586093 3.8464404 -6.99586093 3.8464404 -6.625 1.6875 C-3.625 -0.3125 -3.625 -0.3125 0 0 Z " fill="#49AB4D" transform="translate(18.625,19.3125)"/>
<path d="M0 0 C0.33 1.65 0.66 3.3 1 5 C-0.65 5.66 -2.3 6.32 -4 7 C-3.01 7.99 -2.02 8.98 -1 10 C-1.33 10.33 -1.66 10.66 -2 11 C-8.72 10.28 -8.72 10.28 -10 9 C-10.37086093 3.1589404 -10.37086093 3.1589404 -10 1 C-6.1496895 -1.56687367 -4.41430237 -0.83288724 0 0 Z M-7 4 C-6 6 -6 6 -6 6 Z " fill="#34484B" transform="translate(47,20)"/>
<path d="M0 0 C3.375 0.6875 3.375 0.6875 4.375 1.6875 C4.44679964 3.20678038 4.45892007 4.72917482 4.4375 6.25 C4.42847656 7.07628906 4.41945313 7.90257812 4.41015625 8.75390625 C4.39855469 9.39199219 4.38695312 10.03007812 4.375 10.6875 C3.385 10.3575 2.395 10.0275 1.375 9.6875 C1.375 8.0375 1.375 6.3875 1.375 4.6875 C-0.275 4.6875 -1.925 4.6875 -3.625 4.6875 C-3.625 6.3375 -3.625 7.9875 -3.625 9.6875 C-4.615 10.0175 -5.605 10.3475 -6.625 10.6875 C-6.70596803 9.23007537 -6.76417774 7.77137193 -6.8125 6.3125 C-6.84730469 5.50039063 -6.88210937 4.68828125 -6.91796875 3.8515625 C-6.82128906 3.13742188 -6.72460938 2.42328125 -6.625 1.6875 C-3.625 -0.3125 -3.625 -0.3125 0 0 Z " fill="#35444D" transform="translate(6.625,19.3125)"/>
<path d="M0 0 C2.25245881 2.68841859 3.88213958 4.64641875 5 8 C2.525 7.01 2.525 7.01 0 6 C0 4.02 0 2.04 0 0 Z " fill="#328536" transform="translate(12,23)"/>
<path d="M0 0 C2.475 0.99 2.475 0.99 5 2 C5 3.98 5 5.96 5 8 C2.74754119 5.31158141 1.11786042 3.35358125 0 0 Z " fill="#348538" transform="translate(18,19)"/>
</svg>
